<?xml version="1.0" encoding="utf-8"?>
<!-- Generator: Adobe Illustrator 26.0.3, SVG Export Plug-In . SVG Version: 6.00 Build 0)  -->
<svg version="1.0" id="Layer_1" xmlns="http://www.w3.org/2000/svg" xmlns:xlink="http://www.w3.org/1999/xlink" x="0px" y="0px"
	 viewBox="0 0 875 611.6" style="enable-background:new 0 0 875 611.6;" xml:space="preserve">
<style type="text/css">
	.st0{fill:#636569;}
	.st1{fill:#CE0E2D;}
</style>
<path class="st0" d="M643.5,215c0,1.7-1,2.5-2.9,2.5s-2.9-0.8-2.9-2.5v-10.1c0-4.7-1.7-7.2-4.7-7.2c-2.9,0-4.9,2.2-4.9,6.9V215
	c0,1.7-1,2.5-2.9,2.5c-2,0-2.9-0.8-2.9-2.5v-10.9c0-4.2-1.5-6.6-4.7-6.6s-4.9,2.5-4.9,6.7v10.6c0,1.7-1,2.5-2.9,2.5
	c-1.4,0.2-2.7-0.8-2.9-2.2c0-0.2,0-0.4,0-0.6V196c0-1.7,1-2.5,3-2.5c1.5,0,3.4,0.7,4.5,0.7c2.2,0,3.5-1.4,6.4-1.4
	c3.7,0,4.9,2.2,7.2,2.2c2,0,3.7-2.2,7.9-2.2c5.1,0,7.2,2.4,7.2,7.1L643.5,215L643.5,215z"/>
<path class="st0" d="M667.8,205.7h-10.1c-2.2,0-3.4,0.8-3.4,2.5c0,2.2,2.5,4.5,5,4.5c4.2,0,4.9-3.4,7.4-3.4c1.5,0,3.4,1.3,3.4,2.5
	c0,1.5-3.5,5.9-10.8,5.9c-7.1,0-12.5-4.4-12.5-12.6c0-9.9,6.1-13.6,12.3-13.6c10.6,0,12,9.4,12,11.4
	C671.2,205.2,670.2,205.7,667.8,205.7 M658.7,201.8c3.2,0,4.9-0.7,4.9-2c0-1.5-2-3.4-4.4-3.4c-2,0-4.5,1.4-4.5,3
	S656,201.8,658.7,201.8"/>
<path class="st0" d="M683.9,218.2c-4,0-10.4-2.4-10.4-12.8s6.2-13,10.4-13c2.9,0,3.9,0.8,5.6,0.8c1.5,0,1.8-1.5,1.8-3.5l0.2-2.4
	c0.2-1.7,0.7-3,2.2-3h1.8c1.5,0,2.3,1.4,2.3,3.7v26.3c0,2-1,3-3.2,3c-2.3,0-2.9-0.8-4.5-0.8C687.8,216.8,687.4,218.2,683.9,218.2
	 M685.4,213.5c4,0,5.9-3.5,5.9-8.6c0-5.4-2.4-7.9-5.6-7.9c-2,0-5.9,1-5.9,8.2C680,211.3,682.7,213.5,685.4,213.5"/>
<path class="st0" d="M706.3,188.9c-2.9,0-3.7-1.4-3.7-2.9c0-2.4,1.7-3,3.7-3c2.9,0,3.9,1.2,3.9,2.9
	C710.3,188.3,708.5,188.9,706.3,188.9 M710.3,196v18.2c0,2.4-1.3,3.5-3.9,3.5c-3.4,0-3.9-1.5-3.9-4.2v-18.4c0-2.2,1.2-3.5,2.9-3.5
	h1.7C709.3,191.6,710.3,193.1,710.3,196"/>
<path class="st0" d="M727,191.4c4.9,0,9.9,2.9,9.9,5.4c0,1.2-1.5,2.7-3.7,2.7c-2,0-3.2-2.2-5.7-2.2c-2.3,0-5.5,1.7-5.5,7.4
	c0,5,2.5,7.6,5.9,7.6c3.9,0,3.5-2.4,6.4-2.4c1.4-0.1,2.7,0.9,2.9,2.4c0,2-4,5.7-10.1,5.7c-7.4,0-13-4.5-13-13.3
	C714,197,719.1,191.4,727,191.4"/>
<path class="st0" d="M758.7,217.4c-2,0-3-0.8-4.2-0.8c-2.2,0-3.7,1.5-7.1,1.5c-5.4,0-8.4-3-8.4-7.4s3.5-7.6,11.3-8.8
	c3.2-0.3,4.2-1.7,4.2-2.7c0-1.8-1.5-3.2-3.3-3.2c0,0-0.1,0-0.1,0c-3.7,0-3.4,3.2-7.4,3.2c-1.3,0-2.9-0.3-2.9-1.9
	c0-1.7,2-5.4,9.8-5.4c6.7,0,10.8,1.5,10.8,8.6V215C761.5,216.8,760.4,217.4,758.7,217.4 M749.6,213c2.7-0.1,4.8-2.2,5-4.9
	c0.1-1.2-0.7-2.2-1.9-2.4c-0.2,0-0.3,0-0.5,0c-2,0-6.1,1.4-6.1,4c0,1.7,1.4,3.2,3.1,3.2C749.3,212.9,749.4,212.9,749.6,213"/>
<path class="st0" d="M773.7,186.7v27.8c0,2-1.2,3-3.5,3c-2.9,0-4-1-4-3.5v-27.8c-0.1-1.6,1.2-2.9,2.8-3c0,0,0.1,0,0.1,0h1.5
	C772.7,183,773.7,184.2,773.7,186.7"/>
<path class="st1" d="M94,377.5c0-31.8,28.8-49.6,64.5-54.4c36.5-4.7,56.7-19.4,56.7-35.7c0-23.2-17.2-40.4-37.4-40.4h-6.2
	c-22.6,0-32.7,23.2-49.7,23.2c-4.7,0-9.3,0.8-9.3-5.4c0-15.5,31.1-25.6,59.1-25.6c82.3,0,76.1,30.3,76.1,105.7v56.7
	c0,10.1-4.7,15.5-14,15.5c-7.7,0-21.7-5.4-34.2-5.4c-23.2,0-29.4,10.9-54.4,10.9C117.4,422.6,94,405.4,94,377.5 M162.4,407.8
	c29.5,0,54.4-21.7,54.4-49.7c0-17.8-14-32.7-35-32.7c-25.6,0-56.7,21.7-56.7,46.6C125.2,392.3,142.2,407.8,162.4,407.8"/>
<path class="st1" d="M350.4,346.3c10.9,0,20.2-8.6,24.9-24.9l16.3-61.5c3.9-13.1,12.5-20.2,24.1-20.2c2.4,0,13.3,0.8,14,10.9
	c0.8,5.4-5.4,20.2-5.4,21l-44.3,129c-4.7,14-13.1,21-26.4,21c-17,0-27.9-4.7-35-25.6L275.1,268c-7.1-20.2-3.2-27.1,9.3-27.1
	c17.9,0,23.2,3,31.2,38.9C325.7,325.4,331.9,346.3,350.4,346.3"/>
<path class="st1" d="M491.5,392.9c0,17.9-5.4,27.1-16.3,27.1c-17.2,0-19.4-4.7-19.4-40.4V269.4c0-18.7,3.9-28,17-28
	c18.7,0,18.7,8.6,18.7,41.9V392.9z"/>
<path class="st1" d="M475.2,222.1c-11.6,0-15.5-3.9-15.5-10.1s3.8-10.1,12.5-10.1c7.7,0,15.5,2.4,15.5,10.1
	C487.6,218,479.9,222,475.2,222.1"/>
<path class="st1" d="M592,428.6c-33.3,0-50.5-16.3-50.5-52v-67.5c0-18.7-3.2-25.6-10.9-38c-3.9-7.1-12.5-10.1-12.5-18.7
	c0-7.1,13.6-17.2,18.7-27.1l0.2-0.3c1-1.9,0.5-0.5,5.2-23.1c2.4-10.9,11.6-13.1,17.8-13.1c7.7,0,14,2.4,16.3,14.8
	c1.5,8.6,0.8,11,8.6,28c4.7,10.1,20.2,12.5,20.2,21c0,10.1-8.6,5.4-21.7,25.6c-3.9,6.2-7.1,22.6-7.1,38v37.2
	c0,10.1,2.4,32.7,15.5,41.9c6.2,4.7,17.8,12.5,17.8,19.4C609.8,424.1,603.8,428.7,592,428.6"/>
<path class="st1" d="M627,377.5c0-31.8,28.8-49.7,64.5-54.4c36.5-4.7,56.7-19.4,56.7-35.7c0-23.2-17.2-40.4-37.4-40.4h-6.2
	c-22.6,0-32.7,23.2-49.7,23.2c-4.7,0-9.3,0.8-9.3-5.4c0-15.5,31.2-25.6,59.1-25.6c82.3,0,76.1,30.3,76.1,105.7v56.7
	c0,10.1-4.7,15.5-14,15.5c-7.8,0-21.7-5.4-34.2-5.4c-23.2,0-29.5,10.9-54.4,10.9C650.2,422.6,627,405.4,627,377.5 M695.3,407.8
	c29.5,0,54.4-21.7,54.4-49.7c0-17.8-14-32.7-35-32.7c-25.6,0-56.7,21.7-56.7,46.6C658.1,392.3,675.1,407.8,695.3,407.8"/>
</svg>
